<?xml version="1.0" encoding="UTF-8" standalone="no"?>
<!DOCTYPE svg PUBLIC "-//W3C//DTD SVG 1.1//EN" "http://www.w3.org/Graphics/SVG/1.1/DTD/svg11.dtd">
<svg version="1.1" xmlns="http://www.w3.org/2000/svg" xmlns:xlink="http://www.w3.org/1999/xlink" preserveAspectRatio="xMidYMid meet" viewBox="0 0 16 16" width="16" height="16"><defs><path d="M2 2L14 2L14 3L2 3L2 2Z" id="aFJ11kZFw"></path><path d="M5 4L11 4L11 5L5 5L5 4Z" id="a2ttmkM8nc"></path><path d="M2 6L14 6L14 7L2 7L2 6Z" id="e2XtEvT6iB"></path><path d="M5 8L11 8L11 9L5 9L5 8Z" id="a2CBhPVnDU"></path><path d="M2 10L14 10L14 11L2 11L2 10Z" id="a31JvWfQAF"></path><path d="M5 12L11 12L11 13L5 13L5 12Z" id="betC0YJbi"></path></defs><g><g><g><use xlink:href="#aFJ11kZFw" opacity="1" fill="#000000" fill-opacity="1"></use></g><g><use xlink:href="#a2ttmkM8nc" opacity="1" fill="#000000" fill-opacity="1"></use></g><g><use xlink:href="#e2XtEvT6iB" opacity="1" fill="#000000" fill-opacity="1"></use></g><g><use xlink:href="#a2CBhPVnDU" opacity="1" fill="#000000" fill-opacity="1"></use></g><g><use xlink:href="#a31JvWfQAF" opacity="1" fill="#000000" fill-opacity="1"></use></g><g><use xlink:href="#betC0YJbi" opacity="1" fill="#000000" fill-opacity="1"></use></g></g></g></svg>