<?xml version="1.0" encoding="UTF-8" standalone="no"?>
<!DOCTYPE svg PUBLIC "-//W3C//DTD SVG 1.1//EN" "http://www.w3.org/Graphics/SVG/1.1/DTD/svg11.dtd">
<svg version="1.1" xmlns="http://www.w3.org/2000/svg" xmlns:xlink="http://www.w3.org/1999/xlink" preserveAspectRatio="xMidYMid meet" viewBox="0 0 16 16" width="16" height="16"><defs><path d="M10 5L10 3L11 3L11 5L13 5L13 6L11 6L11 10L13 10L13 11L11 11L11 13L10 13L10 11L6 11L6 13L5 13L5 11L3 11L3 10L5 10L5 6L3 6L3 5L5 5L5 3L6 3L6 5L10 5ZM6 6L6 10L10 10L10 6L6 6Z" id="e1TARrRW8f"></path></defs><g><g><g><use xlink:href="#e1TARrRW8f" opacity="1" fill="#007dff" fill-opacity="1"></use></g></g></g></svg>