<?xml version="1.0" encoding="UTF-8" standalone="no"?>
<!DOCTYPE svg PUBLIC "-//W3C//DTD SVG 1.1//EN" "http://www.w3.org/Graphics/SVG/1.1/DTD/svg11.dtd">
<svg version="1.1" xmlns="http://www.w3.org/2000/svg" xmlns:xlink="http://www.w3.org/1999/xlink" preserveAspectRatio="xMidYMid meet" viewBox="0 0 16 16" width="16" height="16"><defs><path d="" id="c361ZXslOG"></path><path d="M9.5 2.5L10.5 2.5L10.5 4.5L9.5 5.5L5.5 5.5L5.5 9.5L4.5 10.5L2.5 10.5L2.5 9.5L4.5 9.5L4.5 5.5L2.5 5.5L2.5 4.5L4.5 4.5L4.5 2.5L5.5 2.5L5.5 4.5L9.5 4.5L9.5 2.5Z" id="a2zilMX615"></path><path d="M3.5 13.5L4.5 12.5L13.5 12.5L13.5 13.5L3.5 13.5ZM6.5 10.5L7.5 9.5L9.5 9.5L9.5 10.5L6.5 10.5ZM9.5 7.5L10.5 6.5L11.5 6.5L11.5 7.5L9.5 7.5ZM12.5 4.5L13.5 3.5L13.5 4.5L12.5 4.5Z" id="bWXcKDPLB"></path></defs><g><g><g><g><use xlink:href="#c361ZXslOG" opacity="1" fill-opacity="0" stroke="#000000" stroke-width="1" stroke-opacity="1"></use></g></g><g><use xlink:href="#a2zilMX615" opacity="1" fill="#007dff" fill-opacity="1"></use></g><g><use xlink:href="#bWXcKDPLB" opacity="1" fill="#007dff" fill-opacity="1"></use></g></g></g></svg>