<?xml version="1.0" encoding="UTF-8" standalone="no"?>
<!DOCTYPE svg PUBLIC "-//W3C//DTD SVG 1.1//EN" "http://www.w3.org/Graphics/SVG/1.1/DTD/svg11.dtd">
<svg version="1.1" xmlns="http://www.w3.org/2000/svg" xmlns:xlink="http://www.w3.org/1999/xlink" preserveAspectRatio="xMidYMid meet" viewBox="0 0 16 16" width="16" height="16"><defs><path d="M2 2L14 2L14 3L2 3L2 2Z" id="aFJ11kZFw"></path><path d="M2 4L8 4L8 5L2 5L2 4Z" id="a3lN1WWdo4"></path><path d="M2 6L14 6L14 7L2 7L2 6Z" id="e2XtEvT6iB"></path><path d="M2 8L8 8L8 9L2 9L2 8Z" id="b4y2twh28"></path><path d="M2 10L14 10L14 11L2 11L2 10Z" id="a31JvWfQAF"></path><path d="M2 12L8 12L8 13L2 13L2 12Z" id="a4wgWZom0j"></path></defs><g><g><g><use xlink:href="#aFJ11kZFw" opacity="1" fill="#000000" fill-opacity="1"></use></g><g><use xlink:href="#a3lN1WWdo4" opacity="1" fill="#000000" fill-opacity="1"></use></g><g><use xlink:href="#e2XtEvT6iB" opacity="1" fill="#000000" fill-opacity="1"></use></g><g><use xlink:href="#b4y2twh28" opacity="1" fill="#000000" fill-opacity="1"></use></g><g><use xlink:href="#a31JvWfQAF" opacity="1" fill="#000000" fill-opacity="1"></use></g><g><use xlink:href="#a4wgWZom0j" opacity="1" fill="#000000" fill-opacity="1"></use></g></g></g></svg>